<?xml version="1.0" encoding="UTF-8"?><svg id="Layer_2" xmlns="http://www.w3.org/2000/svg" viewBox="0 0 62.6 60"><g id="Layer_1-2"><path d="M31.3,4c.53,0,.65.35.7.51l5.21,16.03c.54,1.65,2.07,2.76,3.8,2.76h16.85c.16,0,.53,0,.7.51.16.51-.14.72-.27.82l-13.63,9.9c-1.4,1.02-1.99,2.82-1.45,4.47l5.21,16.03c.08.26.06.44-.07.62-.15.21-.42.36-.64.36-.08,0-.21-.02-.41-.16l-13.63-9.9c-.7-.51-1.53-.76-2.35-.76s-1.65.25-2.35.76l-13.63,9.9c-.2.14-.33.16-.41.16-.23,0-.49-.15-.64-.36-.13-.18-.15-.36-.07-.62l5.21-16.03c.54-1.65-.05-3.45-1.45-4.47l-13.63-9.9c-.13-.09-.43-.31-.27-.82s.54-.51.7-.51h16.85c1.73,0,3.27-1.12,3.8-2.76l5.21-16.03c.05-.15.16-.51.7-.51M31.3,0c-1.9,0-3.79,1.09-4.5,3.27l-5.21,16.03H4.74c-4.58,0-6.49,5.87-2.78,8.56l13.63,9.9-5.21,16.03c-1.08,3.32,1.56,6.22,4.52,6.22.92,0,1.88-.28,2.76-.93l13.63-9.9,13.63,9.9c.88.64,1.84.93,2.76.93,2.96,0,5.6-2.89,4.52-6.22l-5.21-16.03,13.63-9.9c3.71-2.69,1.8-8.56-2.78-8.56h-16.85l-5.21-16.03c-.71-2.18-2.6-3.27-4.5-3.27h0Z"/></g></svg>