<?xml version="1.0" encoding="UTF-8"?><svg id="Layer_2" xmlns="http://www.w3.org/2000/svg" viewBox="0 0 52.35 50"><g id="Layer_1-2"><path d="M26.24,50c-1.48,0-2.75-.45-3.9-1.21l-3.87-2.56c-.77,1.67-2.27,2.66-4.05,2.66H4.44c-2.45,0-4.42-1.91-4.43-4.39v-22.42c-.02-2.53,1.89-4.53,4.43-4.53h11.4s4.31-8.58,4.31-8.58l1.46-4.34C22.42,1.86,24.97.04,27.77,0s5.42,1.82,6.31,4.6l.66,2.06c.6,1.87.76,3.8.41,5.74l-.74,4.17c-.08.42.3.73.71.71l7.39-.42c2.88-.16,5.58,1.04,7.42,3.08,1.96,2.18,2.8,5.07,2.28,7.98l-2.19,12.25c-1.01,5.65-5.85,9.83-11.62,9.83h-12.15ZM46.33,39.4l2.17-12.21c.31-1.76-.23-3.49-1.41-4.78-1.1-1.2-2.72-1.9-4.46-1.8l-7.41.42c-1.39.08-2.67-.53-3.52-1.5s-1.25-2.34-1.01-3.68l.72-3.99c.25-1.36.16-2.7-.26-4.02l-.69-2.14c-.37-1.16-1.43-1.92-2.59-1.93s-2.27.7-2.64,1.87l-1.61,4.76-4.79,9.54v21.98s5.6,3.74,5.6,3.74c.53.35,1.08.54,1.74.57h12.09c4.01,0,7.34-2.85,8.05-6.84ZM14.31,45.13c.27,0,.46-.09.58-.22.15-.18.15-.35.15-.65l-.02-22.94H4.57c-.27,0-.5.05-.62.19s-.17.31-.17.57v22.41c0,.41.32.63.67.63h9.86Z"/><path d="M11.3,41.88c0,1.15-.85,1.99-1.87,1.99s-1.9-.84-1.9-1.94v-2.36c0-1.08.77-1.91,1.79-1.96s1.97.75,1.97,1.85v2.42Z"/></g></svg>