<?xml version="1.0" encoding="UTF-8"?><svg id="Layer_2" xmlns="http://www.w3.org/2000/svg" viewBox="0 0 52.35 50"><g id="Layer_1-2"><path d="M34.05,45.45c-.9,2.79-3.45,4.58-6.29,4.55s-5.35-1.86-6.16-4.63c-.6-1.47-.78-3-1.5-4.42l-4.27-8.49H4.43C1.97,32.45,0,30.53,0,28.05L.02,5.38c0-2.36,1.98-4.26,4.29-4.26h10.21c1.73,0,3.19,1.04,3.94,2.65l3.94-2.61C23.57.39,24.86,0,26.3,0h11.97c5.81,0,10.72,4.14,11.74,9.84l2.2,12.35c.51,2.88-.36,5.74-2.29,7.88s-4.54,3.25-7.42,3.08l-7.4-.42c-.41-.02-.78.28-.71.71l.74,4.17c.35,1.94.19,3.87-.41,5.74l-.68,2.11ZM31.4,38.1l-.71-3.94c-.25-1.38.15-2.73,1.06-3.74.84-.94,2.11-1.51,3.46-1.44l7.42.42c3.57.2,6.5-2.94,5.87-6.49l-2.21-12.44c-.7-3.95-4.13-6.71-8.13-6.7h-11.86c-.67,0-1.24.18-1.79.53l-5.68,3.79v21.98s4.79,9.54,4.79,9.54l1.64,4.85c.42,1.16,1.54,1.85,2.72,1.78,1.11-.06,2.12-.8,2.48-1.93l.69-2.14c.42-1.31.51-2.65.25-4.07ZM15.02,28.67V5.75c.04-.3,0-.48-.14-.65-.12-.15-.32-.22-.58-.22H4.44c-.36,0-.67.23-.67.64v22.53c.03.41.27.65.67.65l10.58-.02Z"/><path d="M11.28,10.49c0,1.12-.89,1.89-1.86,1.9-1.07,0-1.91-.85-1.9-1.96v-2.36c0-1.07.78-1.89,1.79-1.94s1.97.74,1.97,1.84v2.53Z"/></g></svg>